<?xml version="1.0" encoding="UTF-8"?>
<!DOCTYPE svg PUBLIC "-//W3C//DTD SVG 1.1//EN" "http://www.w3.org/Graphics/SVG/1.1/DTD/svg11.dtd">
<!-- Creator: CorelDRAW -->
<svg xmlns="http://www.w3.org/2000/svg" xml:space="preserve" width="138px" height="50px" version="1.1" style="shape-rendering:geometricPrecision; text-rendering:geometricPrecision; image-rendering:optimizeQuality; fill-rule:evenodd; clip-rule:evenodd"
viewBox="0 0 138 50"
 xmlns:xlink="http://www.w3.org/1999/xlink"
 xmlns:xodm="http://www.corel.com/coreldraw/odm/2003">
 <defs>
  <style type="text/css">
   <![CDATA[
    .fil0 {fill:none}
    .fil2 {fill:#FEFEFE;fill-rule:nonzero}
    .fil4 {fill:#E31E24;fill-rule:nonzero}
    .fil3 {fill:#E31E24;fill-rule:nonzero}
    .fil1 {fill:#200E66;fill-rule:nonzero}
   ]]>
  </style>
 </defs>
 <g id="Layer_x0020_1">
  <metadata id="CorelCorpID_0Corel-Layer"/>
  <polygon class="fil0" points="0,0 138,0 138,50 0,50 "/>
  <g id="_2515753361312">
   <path class="fil1" d="M17.09 40.66l0 -28.08 -17.03 0 0 -12.58 46.35 0 0 12.58 -15.48 0 0 31.2 -13.84 0 0 -3.12zm6.24 -31.2l0 28.08 1.36 0 0 -31.2 15.49 0 0 -0.1 -33.88 0 0 0.1 17.03 0 0 3.12z"/>
   <polygon class="fil2" points="20.21,40.66 20.21,9.46 3.18,9.46 3.18,3.12 43.3,3.12 43.3,9.46 27.81,9.46 27.81,40.66 "/>
   <polygon class="fil3" points="21.54,40.66 21.54,9.46 4.51,9.46 4.51,4 43.3,4 43.3,9.46 27.81,9.46 27.81,40.66 "/>
   <polygon class="fil1" points="0,40.98 0,13.66 12.54,13.66 12.54,43.78 0,43.78 "/>
   <polygon class="fil2" points="3.9,40.43 3.9,17.01 8.64,17.01 8.64,40.43 "/>
   <polygon class="fil4" points="4.88,40.43 4.88,17.94 8.64,17.94 8.64,40.43 "/>
  </g>
  <g id="_2515753362848">
   <path class="fil4" d="M33.27 31.01l0 -16.4 3.51 0 0 16.4 -3.51 0zm91.56 0l0 -16.4 12.83 0 0 2.77 -9.32 0 0 3.64 8.67 0 0 2.77 -8.67 0 0 4.45 9.66 0 0 2.77 -13.17 0zm-17.06 -5.31l3.41 -0.33c0.21,1.09 0.62,1.88 1.25,2.38 0.62,0.51 1.46,0.76 2.52,0.76 1.12,0 1.97,-0.22 2.54,-0.67 0.57,-0.45 0.86,-0.98 0.86,-1.58 0,-0.39 -0.12,-0.72 -0.36,-1 -0.24,-0.27 -0.66,-0.5 -1.26,-0.7 -0.4,-0.14 -1.33,-0.38 -2.78,-0.72 -1.87,-0.44 -3.18,-0.99 -3.94,-1.63 -1.06,-0.9 -1.59,-2.01 -1.59,-3.31 0,-0.84 0.25,-1.62 0.75,-2.35 0.5,-0.73 1.22,-1.29 2.16,-1.67 0.94,-0.38 2.07,-0.57 3.4,-0.57 2.16,0 3.8,0.45 4.89,1.37 1.1,0.91 1.67,2.12 1.73,3.65l-3.51 0.11c-0.15,-0.85 -0.47,-1.45 -0.96,-1.82 -0.49,-0.37 -1.22,-0.56 -2.2,-0.56 -1.01,0 -1.8,0.2 -2.36,0.59 -0.37,0.26 -0.56,0.6 -0.56,1.03 0,0.39 0.18,0.72 0.52,0.99 0.44,0.36 1.51,0.73 3.21,1.11 1.7,0.38 2.95,0.77 3.76,1.18 0.82,0.41 1.46,0.96 1.92,1.67 0.46,0.7 0.69,1.57 0.69,2.61 0,0.94 -0.28,1.82 -0.83,2.64 -0.55,0.82 -1.33,1.43 -2.34,1.83 -1.01,0.4 -2.27,0.6 -3.77,0.6 -2.19,0 -3.87,-0.48 -5.05,-1.44 -1.17,-0.95 -1.87,-2.35 -2.1,-4.17zm-16.56 -11.09l3.51 0 0 8.89c0,1.41 0.04,2.32 0.13,2.74 0.15,0.67 0.5,1.21 1.05,1.62 0.56,0.41 1.33,0.61 2.29,0.61 0.99,0 1.73,-0.19 2.23,-0.58 0.5,-0.39 0.8,-0.85 0.9,-1.42 0.1,-0.56 0.15,-1.48 0.15,-2.78l0 -9.08 3.51 0 0 8.62c0,1.97 -0.09,3.37 -0.28,4.18 -0.19,0.81 -0.54,1.5 -1.05,2.06 -0.5,0.56 -1.18,1.01 -2.03,1.34 -0.85,0.33 -1.95,0.5 -3.32,0.5 -1.65,0 -2.9,-0.18 -3.75,-0.54 -0.85,-0.37 -1.53,-0.84 -2.02,-1.42 -0.5,-0.58 -0.82,-1.18 -0.98,-1.82 -0.23,-0.94 -0.34,-2.33 -0.34,-4.16l0 -8.76zm-14.69 16.4l0 -16.26 3.51 0 0 13.49 8.69 0 0 2.77 -12.2 0zm-16.24 0l0 -16.4 5.61 0c2.12,0 3.51,0.08 4.15,0.24 1,0.25 1.83,0.78 2.5,1.61 0.67,0.82 1,1.89 1,3.2 0,1 -0.19,1.85 -0.57,2.53 -0.39,0.69 -0.88,1.23 -1.47,1.62 -0.6,0.39 -1.2,0.65 -1.81,0.78 -0.84,0.15 -2.05,0.24 -3.63,0.24l-2.27 0 0 6.18 -3.51 0zm3.51 -13.63l0 4.67 1.91 0c1.37,0 2.29,-0.08 2.75,-0.26 0.46,-0.17 0.83,-0.44 1.09,-0.81 0.26,-0.36 0.4,-0.79 0.4,-1.28 0,-0.6 -0.19,-1.09 -0.56,-1.48 -0.37,-0.39 -0.83,-0.63 -1.4,-0.73 -0.42,-0.07 -1.25,-0.11 -2.51,-0.11l-1.68 0zm-23.72 13.63l0 -16.4 5.25 0 3.11 11.18 3.07 -11.18 5.27 0 0 16.4 -3.25 0 -0.01 -12.91 -3.42 12.91 -3.37 0 -3.4 -12.91 -0.01 12.91 -3.24 0z"/>
   <path class="fil1" d="M36.43 43.58l0 -8.85 -3.16 0 0 -1.81 8.46 0 0 1.81 -3.14 0 0 8.85 -2.16 0zm6.69 0l0 -10.66 7.89 0 0 1.81 -5.73 0 0 2.36 5.33 0 0 1.8 -5.33 0 0 2.89 5.94 0 0 1.8 -8.1 0zm16.75 -3.93l2.08 0.64c-0.32,1.18 -0.85,2.05 -1.59,2.62 -0.75,0.57 -1.69,0.85 -2.83,0.85 -1.42,0 -2.58,-0.48 -3.5,-1.45 -0.91,-0.97 -1.36,-2.29 -1.36,-3.97 0,-1.77 0.45,-3.15 1.37,-4.14 0.92,-0.98 2.12,-1.47 3.62,-1.47 1.3,0 2.36,0.39 3.17,1.16 0.49,0.46 0.85,1.11 1.1,1.97l-2.13 0.5c-0.13,-0.55 -0.39,-0.98 -0.79,-1.31 -0.41,-0.31 -0.89,-0.47 -1.46,-0.47 -0.79,0 -1.44,0.28 -1.93,0.85 -0.49,0.56 -0.74,1.48 -0.74,2.75 0,1.35 0.25,2.31 0.73,2.88 0.49,0.57 1.12,0.86 1.89,0.86 0.58,0 1.07,-0.19 1.48,-0.55 0.41,-0.36 0.71,-0.94 0.89,-1.72zm3.93 3.93l0 -10.66 2.16 0 0 4.2 4.2 0 0 -4.2 2.16 0 0 10.66 -2.16 0 0 -4.66 -4.2 0 0 4.66 -2.16 0zm10.75 0l0 -10.66 2.09 0 4.39 7.15 0 -7.15 1.99 0 0 10.66 -2.15 0 -4.32 -7 0 7 -2 0zm10.31 -5.26c0,-1.09 0.16,-2 0.49,-2.74 0.24,-0.54 0.57,-1.03 0.99,-1.47 0.42,-0.43 0.88,-0.75 1.38,-0.96 0.66,-0.28 1.43,-0.42 2.3,-0.42 1.57,0 2.82,0.49 3.77,1.46 0.94,0.98 1.41,2.34 1.41,4.08 0,1.72 -0.47,3.07 -1.4,4.04 -0.94,0.98 -2.19,1.47 -3.75,1.47 -1.59,0 -2.85,-0.49 -3.79,-1.46 -0.93,-0.97 -1.4,-2.3 -1.4,-4zm2.22 -0.07c0,1.2 0.28,2.12 0.83,2.74 0.56,0.63 1.27,0.94 2.13,0.94 0.86,0 1.57,-0.31 2.12,-0.93 0.55,-0.62 0.83,-1.55 0.83,-2.78 0,-1.23 -0.27,-2.14 -0.81,-2.74 -0.54,-0.6 -1.25,-0.9 -2.14,-0.9 -0.89,0 -1.6,0.3 -2.15,0.91 -0.54,0.61 -0.81,1.53 -0.81,2.76zm9.86 5.33l0 -10.57 2.16 0 0 8.77 5.35 0 0 1.8 -7.51 0zm8.59 -5.26c0,-1.09 0.16,-2 0.49,-2.74 0.24,-0.54 0.57,-1.03 0.99,-1.47 0.42,-0.43 0.88,-0.75 1.38,-0.96 0.66,-0.28 1.43,-0.42 2.3,-0.42 1.57,0 2.83,0.49 3.77,1.46 0.94,0.98 1.42,2.34 1.42,4.08 0,1.72 -0.47,3.07 -1.41,4.04 -0.93,0.98 -2.19,1.47 -3.75,1.47 -1.59,0 -2.85,-0.49 -3.79,-1.46 -0.93,-0.97 -1.4,-2.3 -1.4,-4zm2.22 -0.07c0,1.2 0.28,2.12 0.84,2.74 0.56,0.63 1.26,0.94 2.12,0.94 0.86,0 1.57,-0.31 2.12,-0.93 0.55,-0.62 0.83,-1.55 0.83,-2.78 0,-1.23 -0.27,-2.14 -0.81,-2.74 -0.53,-0.6 -1.25,-0.9 -2.14,-0.9 -0.89,0 -1.6,0.3 -2.15,0.91 -0.54,0.61 -0.81,1.53 -0.81,2.76zm14.76 1.42l0 -1.8 4.63 0 0 4.25c-0.45,0.44 -1.1,0.82 -1.96,1.16 -0.85,0.33 -1.71,0.5 -2.59,0.5 -1.12,0 -2.09,-0.24 -2.92,-0.71 -0.82,-0.46 -1.44,-1.14 -1.86,-2.01 -0.42,-0.87 -0.63,-1.82 -0.63,-2.84 0,-1.12 0.24,-2.1 0.7,-2.97 0.47,-0.86 1.15,-1.53 2.04,-1.99 0.69,-0.35 1.54,-0.53 2.55,-0.53 1.33,0 2.36,0.28 3.1,0.83 0.75,0.56 1.22,1.33 1.44,2.31l-2.15 0.4c-0.14,-0.52 -0.43,-0.93 -0.84,-1.24 -0.41,-0.3 -0.93,-0.45 -1.55,-0.45 -0.94,0 -1.68,0.29 -2.24,0.89 -0.55,0.6 -0.83,1.49 -0.83,2.66 0,1.27 0.28,2.22 0.84,2.85 0.57,0.63 1.3,0.95 2.21,0.95 0.45,0 0.9,-0.09 1.35,-0.26 0.46,-0.18 0.84,-0.4 1.17,-0.65l0 -1.35 -2.46 0zm9.42 3.91l0 -4.48 -3.9 -6.18 2.52 0 2.52 4.22 2.45 -4.22 2.48 0 -3.91 6.19 0 4.47 -2.16 0z"/>
  </g>
  <path class="fil4" d="M0 46.68l0 -0.7 0.75 0 0 0.7 -0.75 0zm0 3.25l0 -2.86 0.75 0 0 2.86 -0.75 0zm4.6 0l0 -3.95 0.78 0 1.62 2.64 0 -2.64 0.74 0 0 3.95 -0.8 0 -1.6 -2.6 0 2.6 -0.74 0zm7.05 0l0 -3.95 0.77 0 1.63 2.64 0 -2.64 0.74 0 0 3.95 -0.8 0 -1.6 -2.6 0 2.6 -0.74 0zm6.88 -1.95c0,-0.41 0.06,-0.74 0.18,-1.02 0.09,-0.2 0.22,-0.38 0.37,-0.54 0.16,-0.16 0.33,-0.28 0.51,-0.36 0.25,-0.1 0.53,-0.15 0.85,-0.15 0.59,0 1.05,0.18 1.4,0.54 0.35,0.36 0.52,0.86 0.52,1.51 0,0.64 -0.17,1.14 -0.52,1.5 -0.34,0.36 -0.81,0.54 -1.39,0.54 -0.58,0 -1.05,-0.18 -1.4,-0.54 -0.34,-0.36 -0.52,-0.85 -0.52,-1.48zm0.83 -0.03c0,0.45 0.1,0.79 0.31,1.02 0.2,0.23 0.46,0.34 0.78,0.34 0.32,0 0.58,-0.11 0.79,-0.34 0.2,-0.23 0.3,-0.57 0.3,-1.03 0,-0.45 -0.1,-0.79 -0.3,-1.01 -0.19,-0.23 -0.46,-0.34 -0.79,-0.34 -0.33,0 -0.59,0.11 -0.79,0.34 -0.2,0.23 -0.3,0.57 -0.3,1.02zm7.7 1.98l-1.41 -3.95 0.87 0 1 2.92 0.96 -2.92 0.85 0 -1.41 3.95 -0.86 0zm8.88 0l-0.86 0 -0.34 -0.9 -1.58 0 -0.33 0.9 -0.84 0 1.53 -3.95 0.84 0 1.58 3.95zm-1.46 -1.57l-0.55 -1.46 -0.53 1.46 1.08 0zm5.43 1.57l0 -3.28 -1.16 0 0 -0.67 3.13 0 0 0.67 -1.17 0 0 3.28 -0.8 0zm5.55 0l0 -3.95 2.92 0 0 0.67 -2.12 0 0 0.87 1.97 0 0 0.67 -1.97 0 0 1.07 2.2 0 0 0.67 -3 0zm10.74 0l0 -1.66 -1.44 -2.29 0.93 0 0.94 1.56 0.9 -1.56 0.92 0 -1.45 2.29 0 1.66 -0.8 0zm5.55 -1.95c0,-0.41 0.06,-0.74 0.18,-1.02 0.09,-0.2 0.21,-0.38 0.36,-0.54 0.16,-0.16 0.33,-0.28 0.52,-0.36 0.24,-0.1 0.53,-0.15 0.85,-0.15 0.58,0 1.04,0.18 1.4,0.54 0.34,0.36 0.52,0.86 0.52,1.51 0,0.64 -0.18,1.14 -0.52,1.5 -0.35,0.36 -0.81,0.54 -1.39,0.54 -0.59,0 -1.06,-0.18 -1.4,-0.54 -0.35,-0.36 -0.52,-0.85 -0.52,-1.48zm0.82 -0.03c0,0.45 0.1,0.79 0.31,1.02 0.2,0.23 0.47,0.34 0.79,0.34 0.31,0 0.58,-0.11 0.78,-0.34 0.2,-0.23 0.31,-0.57 0.31,-1.03 0,-0.45 -0.1,-0.79 -0.3,-1.01 -0.2,-0.23 -0.46,-0.34 -0.79,-0.34 -0.33,0 -0.6,0.11 -0.8,0.34 -0.2,0.23 -0.3,0.57 -0.3,1.02zm6.7 -1.97l0.8 0 0 2.14c0,0.34 0.01,0.56 0.03,0.66 0.03,0.16 0.11,0.29 0.24,0.39 0.12,0.1 0.3,0.14 0.52,0.14 0.22,0 0.39,-0.04 0.5,-0.13 0.12,-0.1 0.19,-0.21 0.21,-0.35 0.02,-0.13 0.03,-0.35 0.03,-0.67l0 -2.18 0.8 0 0 2.08c0,0.47 -0.02,0.8 -0.06,1 -0.04,0.2 -0.12,0.36 -0.24,0.5 -0.11,0.13 -0.27,0.24 -0.46,0.32 -0.2,0.08 -0.45,0.12 -0.76,0.12 -0.37,0 -0.66,-0.04 -0.85,-0.13 -0.2,-0.09 -0.35,-0.2 -0.46,-0.34 -0.12,-0.14 -0.19,-0.29 -0.23,-0.44 -0.05,-0.23 -0.07,-0.56 -0.07,-1l0 -2.11zm7.04 3.95l0 -3.95 1.68 0c0.42,0 0.73,0.04 0.92,0.11 0.2,0.07 0.35,0.19 0.46,0.37 0.12,0.18 0.18,0.39 0.18,0.63 0,0.29 -0.09,0.54 -0.26,0.73 -0.18,0.19 -0.44,0.31 -0.78,0.36 0.17,0.1 0.31,0.22 0.42,0.33 0.11,0.13 0.26,0.34 0.45,0.65l0.49 0.77 -0.96 0 -0.57 -0.86c-0.2,-0.31 -0.34,-0.5 -0.42,-0.58 -0.08,-0.08 -0.16,-0.14 -0.24,-0.17 -0.09,-0.03 -0.22,-0.04 -0.4,-0.04l-0.17 0 0 1.65 -0.8 0zm0.8 -2.28l0.59 0c0.39,0 0.62,-0.02 0.72,-0.05 0.09,-0.03 0.17,-0.09 0.22,-0.17 0.06,-0.08 0.08,-0.17 0.08,-0.29 0,-0.14 -0.03,-0.24 -0.1,-0.33 -0.07,-0.08 -0.17,-0.13 -0.3,-0.15 -0.07,-0.01 -0.26,-0.01 -0.58,-0.01l-0.63 0 0 1zm9.32 2.28l0 -3.95 1.67 0c0.43,0 0.73,0.04 0.92,0.11 0.2,0.07 0.35,0.19 0.46,0.37 0.12,0.18 0.18,0.39 0.18,0.63 0,0.29 -0.09,0.54 -0.26,0.73 -0.18,0.19 -0.44,0.31 -0.78,0.36 0.17,0.1 0.31,0.22 0.42,0.33 0.11,0.13 0.27,0.34 0.45,0.65l0.49 0.77 -0.96 0 -0.57 -0.86c-0.2,-0.31 -0.34,-0.5 -0.42,-0.58 -0.08,-0.08 -0.16,-0.14 -0.24,-0.17 -0.09,-0.03 -0.22,-0.04 -0.4,-0.04l-0.17 0 0 1.65 -0.79 0zm0.79 -2.28l0.6 0c0.38,0 0.62,-0.02 0.71,-0.05 0.1,-0.03 0.17,-0.09 0.22,-0.17 0.06,-0.08 0.08,-0.17 0.08,-0.29 0,-0.14 -0.03,-0.24 -0.1,-0.33 -0.07,-0.08 -0.17,-0.13 -0.3,-0.15 -0.07,-0.01 -0.26,-0.01 -0.58,-0.01l-0.63 0 0 1zm6.25 2.28l0 -3.95 2.93 0 0 0.67 -2.13 0 0 0.87 1.98 0 0 0.67 -1.98 0 0 1.07 2.2 0 0 0.67 -3 0zm6.54 -1.28l0.78 -0.08c0.04,0.26 0.14,0.45 0.28,0.57 0.14,0.12 0.33,0.19 0.57,0.19 0.26,0 0.45,-0.06 0.58,-0.17 0.13,-0.11 0.2,-0.23 0.2,-0.38 0,-0.09 -0.03,-0.17 -0.09,-0.24 -0.05,-0.06 -0.14,-0.12 -0.28,-0.17 -0.09,-0.03 -0.3,-0.09 -0.64,-0.17 -0.42,-0.11 -0.72,-0.24 -0.89,-0.39 -0.24,-0.22 -0.36,-0.48 -0.36,-0.8 0,-0.2 0.05,-0.39 0.17,-0.56 0.11,-0.18 0.27,-0.31 0.49,-0.41 0.21,-0.09 0.47,-0.13 0.77,-0.13 0.5,0 0.87,0.11 1.12,0.33 0.25,0.22 0.38,0.51 0.39,0.87l-0.8 0.03c-0.03,-0.2 -0.11,-0.35 -0.22,-0.44 -0.11,-0.09 -0.28,-0.13 -0.5,-0.13 -0.23,0 -0.41,0.05 -0.54,0.14 -0.08,0.06 -0.12,0.15 -0.12,0.25 0,0.09 0.04,0.17 0.12,0.24 0.1,0.08 0.34,0.17 0.73,0.26 0.38,0.09 0.67,0.19 0.85,0.29 0.19,0.1 0.33,0.23 0.44,0.4 0.1,0.17 0.16,0.38 0.16,0.63 0,0.22 -0.07,0.44 -0.19,0.63 -0.13,0.2 -0.31,0.35 -0.53,0.44 -0.23,0.1 -0.52,0.15 -0.86,0.15 -0.5,0 -0.89,-0.12 -1.15,-0.35 -0.27,-0.23 -0.43,-0.56 -0.48,-1zm6.95 1.28l0 -3.95 2.92 0 0 0.67 -2.12 0 0 0.87 1.97 0 0 0.67 -1.97 0 0 1.07 2.2 0 0 0.67 -3 0zm10.3 0l-0.86 0 -0.34 -0.9 -1.58 0 -0.33 0.9 -0.85 0 1.53 -3.95 0.85 0 1.58 3.95zm-1.46 -1.57l-0.55 -1.46 -0.53 1.46 1.08 0zm4.95 1.57l0 -3.95 1.68 0c0.42,0 0.73,0.04 0.92,0.11 0.19,0.07 0.35,0.19 0.46,0.37 0.11,0.18 0.17,0.39 0.17,0.63 0,0.29 -0.08,0.54 -0.26,0.73 -0.17,0.19 -0.43,0.31 -0.78,0.36 0.18,0.1 0.32,0.22 0.43,0.33 0.11,0.13 0.26,0.34 0.45,0.65l0.48 0.77 -0.95 0 -0.57 -0.86c-0.21,-0.31 -0.35,-0.5 -0.42,-0.58 -0.08,-0.08 -0.16,-0.14 -0.24,-0.17 -0.09,-0.03 -0.22,-0.04 -0.41,-0.04l-0.16 0 0 1.65 -0.8 0zm0.8 -2.28l0.59 0c0.38,0 0.62,-0.02 0.72,-0.05 0.09,-0.03 0.17,-0.09 0.22,-0.17 0.05,-0.08 0.08,-0.17 0.08,-0.29 0,-0.14 -0.03,-0.24 -0.1,-0.33 -0.08,-0.08 -0.18,-0.13 -0.3,-0.15 -0.07,-0.01 -0.26,-0.01 -0.59,-0.01l-0.62 0 0 1zm8.78 0.82l0.77 0.24c-0.12,0.43 -0.32,0.76 -0.59,0.97 -0.28,0.21 -0.63,0.31 -1.05,0.31 -0.53,0 -0.96,-0.18 -1.3,-0.54 -0.33,-0.35 -0.5,-0.84 -0.5,-1.46 0,-0.66 0.17,-1.17 0.51,-1.54 0.33,-0.36 0.78,-0.54 1.33,-0.54 0.49,0 0.88,0.14 1.18,0.43 0.18,0.17 0.32,0.41 0.41,0.73l-0.79 0.18c-0.05,-0.2 -0.15,-0.36 -0.3,-0.48 -0.14,-0.12 -0.32,-0.18 -0.53,-0.18 -0.3,0 -0.54,0.11 -0.72,0.32 -0.18,0.21 -0.27,0.55 -0.27,1.02 0,0.49 0.09,0.85 0.27,1.06 0.18,0.21 0.41,0.32 0.7,0.32 0.21,0 0.39,-0.07 0.55,-0.2 0.15,-0.14 0.26,-0.35 0.33,-0.64zm4.52 1.46l0 -3.95 0.8 0 0 1.55 1.55 0 0 -1.55 0.8 0 0 3.95 -0.8 0 0 -1.73 -1.55 0 0 1.73 -0.8 0z"/>
 </g>
</svg>
